<svg width="208" height="24" viewBox="0 0 208 24" fill="none" xmlns="http://www.w3.org/2000/svg">
<g id="logo">
<g id="Group">
<path id="Subtract" fill-rule="evenodd" clip-rule="evenodd" d="M122.967 24C129.594 24 134.967 18.6274 134.967 12C134.967 5.37258 129.594 0 122.967 0C116.339 0 110.967 5.37258 110.967 12C110.967 18.6274 116.339 24 122.967 24ZM128.654 5.36757H117.276L116.93 8.25532H117.276L118.292 7.03741C118.89 6.34776 119.199 6.20102 120.361 6.20102H125.587C126.767 6.20102 127.058 6.34776 127.639 7.03741L128.654 8.25532H129.001L128.654 5.36757ZM125.291 17.2267C125.291 17.6581 125.435 17.8547 125.758 17.9633H125.761L126.823 18.3771V18.6295H119.119V18.3771L120.199 17.9633C120.505 17.8547 120.631 17.6405 120.631 17.2267V9.20029C120.631 8.03521 121.268 7.09317 122.43 7.09317V17.4351C122.43 17.7285 122.667 17.9662 122.961 17.9662C123.254 17.9662 123.492 17.7285 123.492 17.4351V9.20029C123.492 8.03521 124.129 7.09317 125.291 7.09317V17.2267Z" fill="#05006D"/>
</g>
<g id="Group_2">
<path id="Vector" d="M8.52149 18.956C8.11356 18.821 7.93161 18.5716 7.93161 18.0286V5.26562C6.4672 5.26562 5.27864 6.45418 5.27864 7.9186V18.0286C5.27864 18.5481 5.12017 18.821 4.73572 18.956L3.37695 19.4784V19.7953H9.85971V19.4784L8.52442 18.956H8.52149Z" fill="#05006D"/>
<path id="Vector_2" d="M13.215 7.77632H12.898L11.7183 6.44103C10.9464 5.53421 10.7205 5.26128 9.1328 5.26128H4.07924C2.62949 5.26128 2.31255 5.48725 1.4967 6.44103L0.340426 7.77632H0L0.451944 4.375H12.7836L13.215 7.77632Z" fill="#05006D"/>
<path id="Vector_3" d="M15.4492 19.7959V19.4789L16.764 19.027C17.2159 18.845 17.3304 18.575 17.3304 17.9852V6.24048C17.3304 5.60658 17.2159 5.35713 16.764 5.17518L15.4492 4.69976V4.38281H26.648V7.48773H26.3076L25.3333 6.17298C24.8579 5.53909 24.5409 5.26616 23.3172 5.26616H19.9628V11.3645H22.8183C23.5431 11.3645 23.8395 11.2295 24.133 10.8216L24.9489 9.71223H25.2893V13.724H24.9489L24.133 12.7027C23.8395 12.3388 23.5197 12.1803 22.8183 12.1803H19.9628V18.9125H23.3641C24.9283 18.9125 25.2012 18.7981 26.0846 17.8472L27.2849 16.5325H27.6488L27.2174 19.7959H15.4522H15.4492Z" fill="#05006D"/>
<path id="Vector_4" d="M29.8252 19.7959V19.4789L30.823 19.071C31.3894 18.8216 31.5479 18.5486 31.5479 16.9639V6.217C31.5479 5.60365 31.4129 5.35713 30.9815 5.17518L29.8252 4.69976V4.38281H34.5853L39.8883 16.283L44.9888 4.38281H49.341V4.69976L48.1847 5.17518C47.7328 5.35713 47.6418 5.60658 47.6418 6.24048V17.9353C47.6418 18.6601 47.7562 18.8186 48.1847 19.0006L49.341 19.476V19.7929H43.3102V19.476L44.443 19.0006C44.8949 18.8186 45.0094 18.5926 45.0094 17.9118V6.60438L39.3659 19.7519H38.4826L32.5662 6.62786V16.9639C32.5662 18.5281 32.7482 18.8216 33.2911 19.071L34.2889 19.4789V19.7959H29.8223H29.8252Z" fill="#05006D"/>
<path id="Vector_5" d="M66.5158 19.4791V19.7961H60.6669V19.4791L61.5063 19.1387C62.2986 18.8452 62.2311 18.4813 61.8467 17.3485L60.8254 14.5136H55.5899L54.6596 17.2106C54.2077 18.4813 54.1607 18.7748 55.044 19.1827L55.7014 19.4762V19.7931H51.5547V19.4762L51.9626 19.2942C52.7344 18.9773 52.9135 18.7044 53.5033 17.1402L58.1724 4.26562H59.8511L64.6787 17.3221C65.1541 18.5928 65.5385 19.0008 66.1519 19.2942L66.5158 19.4762V19.4791ZM55.8834 13.6303H60.5085L58.1519 7.05653L55.8863 13.6303H55.8834Z" fill="#05006D"/>
<path id="Vector_6" d="M68.4309 19.543V16.2326H68.9973C69.4492 17.7734 70.447 19.1791 72.3076 19.1791C74.1682 19.1791 75.1396 18.2282 75.1396 16.664C75.1396 14.8269 73.5989 13.7411 71.8293 12.5848C70.0391 11.4285 68.293 10.2723 68.293 8.03014C68.293 5.44466 70.629 4.10938 72.9386 4.10938C74.4353 4.10938 75.885 4.42632 76.5659 4.63175V7.64569H76.0435C75.3627 6.0815 74.6613 4.97218 72.8711 4.97218C71.3979 4.97218 70.5351 5.56205 70.5351 6.98832C70.5351 8.41458 72.0993 9.39184 73.7779 10.4777C75.6356 11.6574 77.4287 12.9927 77.4287 15.3962C77.4287 18.2312 75.3421 20.0654 72.2842 20.0654C70.855 20.0654 69.1117 19.7484 68.4309 19.543Z" fill="#05006D"/>
<path id="Vector_7" d="M79.4785 19.7959V19.4789L80.7933 19.027C81.2452 18.845 81.3597 18.575 81.3597 17.9852V6.24048C81.3597 5.60658 81.2452 5.35713 80.7933 5.17518L79.4785 4.69976V4.38281H90.6773V7.48773H90.3369L89.3626 6.17298C88.8872 5.53909 88.5702 5.26616 87.3465 5.26616H83.9921V11.3645H86.8476C87.5724 11.3645 87.8688 11.2295 88.1623 10.8216L88.9781 9.71223H89.3186V13.724H88.9781L88.1623 12.7027C87.8688 12.3388 87.5489 12.1803 86.8476 12.1803H83.9921V18.9125H87.3934C88.9576 18.9125 89.2305 18.7981 90.1139 17.8472L91.3142 16.5325H91.6781L91.2467 19.7959H79.4814H79.4785Z" fill="#05006D"/>
<path id="Vector_8" d="M97.8483 17.9773C97.8483 18.6347 97.9393 18.8167 98.3912 19.0192L99.571 19.4711V19.7646H93.4727V19.4711L94.6289 19.0192C95.0809 18.8137 95.1953 18.6112 95.1953 17.9773V6.21212C95.1953 5.57823 95.1044 5.3728 94.6289 5.1703L93.4727 4.69488V4.37793H99.5475V4.69488L98.3912 5.1703C97.9393 5.3728 97.8483 5.53421 97.8483 6.2356V17.9773ZM106.212 17.8864C106.87 18.7492 107.618 19.3156 108.319 19.6531V19.9465H107.187C105.508 19.9465 103.785 19.8115 102.561 18.1329L97.9363 11.8761L103.195 6.41462C103.809 5.78072 103.897 5.23487 103.263 4.98542L102.491 4.66847V4.375H107.727V4.66847L107.184 4.89444C106.186 5.30237 105.302 5.71029 104.17 6.86656L100.293 10.8108L106.209 17.8834L106.212 17.8864Z" fill="#05006D"/>
</g>
<g id="Group_3">
<g id="Group_4">
<path id="Vector_9" d="M146.137 18.956C145.729 18.821 145.547 18.5716 145.547 18.0286V5.26562C144.082 5.26562 142.894 6.45418 142.894 7.9186V18.0286C142.894 18.5481 142.735 18.821 142.351 18.956L140.992 19.4784V19.7953H147.475V19.4784L146.14 18.956H146.137Z" fill="#05006D"/>
<path id="Vector_10" d="M150.829 7.78413H150.512L149.333 6.44884C148.561 5.54202 148.335 5.26909 146.747 5.26909H141.694C140.244 5.26909 139.927 5.49506 139.108 6.44884L137.952 7.78413H137.611L138.063 4.38281H150.395L150.826 7.78413H150.829Z" fill="#05006D"/>
</g>
<path id="Vector_11" d="M166.594 19.9778C164.848 19.9778 163.149 19.8428 161.811 17.8003L158.524 12.8582H157.391V17.9587C157.391 18.5926 157.459 18.8421 157.934 19.024L159.114 19.4995V19.7929H153.062V19.4995L154.219 19.024C154.674 18.8421 154.785 18.6601 154.785 17.9353V6.217C154.785 5.58311 154.741 5.40115 154.219 5.17518L153.062 4.69976V4.38281H159.727C161.497 4.38281 165.121 4.67628 165.121 8.28303C165.121 11.027 162.876 12.3182 161.086 12.5442L165.394 17.8267C165.893 18.4606 166.641 19.2764 167.366 19.6844V19.9778H166.594ZM157.391 12.0218H159.249C160.54 12.0218 162.354 11.1385 162.354 8.55303C162.354 6.48993 161.13 5.19866 159.09 5.19866H157.391V12.0218Z" fill="#05006D"/>
<path id="Vector_12" d="M169.18 14.5809V6.217C169.18 5.60365 169.045 5.37768 168.613 5.17518L167.457 4.69976V4.38281H173.532V4.69976L172.376 5.17518C171.924 5.38061 171.833 5.60658 171.833 6.24048V14.1759C171.833 16.6469 172.308 18.8685 175.369 18.8685C178.18 18.8685 179.178 16.6235 179.178 13.677V7.10328C179.178 5.63006 178.952 5.35713 178.136 4.99617L177.456 4.7027V4.38575H181.922V4.7027L181.221 4.99617C180.519 5.28964 180.223 5.63006 180.223 7.10328V14.2904C180.223 16.9639 178.976 20.0717 174.897 20.0717C171.475 20.0717 169.183 18.575 169.183 14.5868L169.18 14.5809Z" fill="#05006D"/>
<path id="Vector_13" d="M183.996 19.5459V16.2356H184.563C185.018 17.7763 186.012 19.182 187.873 19.182C189.734 19.182 190.708 18.2312 190.708 16.667C190.708 14.8298 189.167 13.744 187.398 12.5877C185.607 11.4315 183.861 10.2752 183.861 8.03014C183.861 5.44466 186.197 4.10938 188.507 4.10938C190.004 4.10938 191.453 4.42632 192.134 4.63175V7.64569H191.612C190.931 6.0815 190.23 4.96924 188.439 4.96924C186.966 4.96924 186.103 5.55912 186.103 6.98832C186.103 8.41752 187.668 9.39184 189.346 10.4806C191.204 11.6604 192.997 12.9957 192.997 15.3992C192.997 18.2341 190.91 20.0683 187.853 20.0683C186.423 20.0683 184.68 19.7513 183.999 19.5459H183.996Z" fill="#05006D"/>
<g id="Group_5">
<path id="Vector_14" d="M203.012 18.956C202.604 18.821 202.422 18.5716 202.422 18.0286V5.26562C200.957 5.26562 199.769 6.45418 199.769 7.9186V18.0286C199.769 18.5481 199.61 18.821 199.226 18.956L197.867 19.4784V19.7953H204.35V19.4784L203.015 18.956H203.012Z" fill="#05006D"/>
<path id="Vector_15" d="M207.704 7.78413H207.387L206.208 6.44884C205.436 5.54202 205.21 5.26909 203.622 5.26909H198.568C197.119 5.26909 196.802 5.49506 195.983 6.44884L194.827 7.78413H194.486L194.938 4.38281H207.27L207.701 7.78413H207.704Z" fill="#05006D"/>
</g>
</g>
</g>
</svg>
